<svg enable-background="new 0 0 74.857 69.312" height="69.312" viewBox="0 0 74.857 69.312" width="74.857" xmlns="http://www.w3.org/2000/svg" xmlns:xlink="http://www.w3.org/1999/xlink"><clipPath id="a"><path d="m0 0h74.857v69.312h-74.857z"/></clipPath><path clip-path="url(#a)" d="m62.381 44.36c-6.891 0-12.477 5.586-12.477 12.476 0 6.891 5.586 12.476 12.477 12.476 6.892 0 12.478-5.585 12.478-12.476-.001-6.89-5.587-12.476-12.478-12.476m0 22.18c-5.351 0-9.704-4.354-9.704-9.704 0-5.351 4.354-9.703 9.704-9.703 5.352 0 9.704 4.353 9.704 9.703s-4.353 9.704-9.704 9.704" fill="#e31925"/><path clip-path="url(#a)" d="m67.926 55.45h-4.158v-4.159c0-.766-.62-1.386-1.387-1.386-.766 0-1.386.62-1.386 1.386v4.159h-4.159c-.765 0-1.387.62-1.387 1.386s.622 1.387 1.387 1.387h4.159v4.158c0 .766.62 1.387 1.386 1.387.767 0 1.387-.621 1.387-1.387v-4.158h4.158c.767 0 1.388-.621 1.388-1.387s-.622-1.386-1.388-1.386" fill="#e31925"/><path clip-path="url(#a)" d="m66.541 8.318c0-1.532-1.242-2.773-2.773-2.773h-5.546v-1.386c0-2.293-1.866-4.159-4.159-4.159s-4.159 1.866-4.159 4.159v1.386h-2.772v-1.386c0-2.293-1.865-4.159-4.158-4.159s-4.159 1.866-4.159 4.159v1.386h-11.09v-1.386c0-2.293-1.865-4.159-4.158-4.159-2.294 0-4.159 1.866-4.159 4.159v1.386h-2.773v-1.386c0-2.293-1.865-4.159-4.159-4.159-2.293 0-4.158 1.866-4.158 4.159v1.386h-5.546c-1.53 0-2.772 1.241-2.772 2.773v52.677c0 1.531 1.241 2.772 2.772 2.772h37.429.001c.765 0 1.385-.621 1.385-1.387 0-.765-.62-1.386-1.385-1.386h-37.43v-41.587h60.995v15.25c0 .765.62 1.386 1.386 1.386s1.388-.621 1.388-1.387h-.001.001zm-13.864-4.159c0-.765.621-1.386 1.387-1.386.767 0 1.386.621 1.386 1.386v6.931h-2.772v-6.931zm-11.09 0c0-.765.622-1.386 1.387-1.386.766 0 1.386.621 1.386 1.386v6.931h-2.772v-6.931zm-19.407 0c0-.765.621-1.386 1.387-1.386s1.386.621 1.386 1.386v6.931h-2.773zm-11.09 0c0-.765.621-1.386 1.386-1.386.766 0 1.387.621 1.387 1.386v6.931h-2.773zm-8.318 12.476v-8.317h5.545v2.772c0 1.531 1.241 2.773 2.772 2.773h2.773c1.531 0 2.772-1.242 2.772-2.773v-2.772h2.773v2.772c0 1.531 1.241 2.773 2.772 2.773h2.773c1.531 0 2.772-1.242 2.772-2.773v-2.772h11.09v2.772c0 1.531 1.241 2.773 2.772 2.773h2.772c1.531 0 2.772-1.242 2.772-2.773v-2.772h2.772v2.772c0 1.531 1.242 2.773 2.772 2.773h2.772c1.531 0 2.772-1.242 2.772-2.773v-2.772h5.546v8.317z" fill="#2692f5"/><path clip-path="url(#a)" d="m54.064 27.725h-41.588c-.766 0-1.386.621-1.386 1.387v22.18c0 .766.62 1.387 1.386 1.387h27.725c.766 0 1.386-.621 1.386-1.387v-9.703h12.478c.765 0 1.385-.621 1.385-1.387v-11.09c-.001-.766-.621-1.387-1.386-1.387m-38.409 5.139c-.541-.542-.541-1.419 0-1.961.542-.541 1.419-.541 1.96 0l1.792 1.793 1.792-1.793c.542-.541 1.419-.541 1.961 0 .541.542.541 1.419 0 1.961l-1.793 1.792 1.793 1.792c.541.542.541 1.419 0 1.961-.542.541-1.419.541-1.961 0l-1.792-1.793-1.792 1.793c-.541.541-1.418.541-1.96 0-.541-.542-.541-1.419 0-1.961l1.793-1.792zm9.297 17.041h-11.09v-8.316h11.09zm13.863 0h-11.09v-8.316h11.09zm0-11.09h-11.09v-8.317h11.09zm13.862 0h-11.09v-8.317h11.09z" fill="#064081"/></svg>